<mxfile host="Electron" agent="Mozilla/5.0 (Windows NT 10.0; Win64; x64) AppleWebKit/537.36 (KHTML, like Gecko) draw.io/28.0.6 Chrome/138.0.7204.100 Electron/37.2.3 Safari/537.36" version="28.0.6">
  <diagram name="Strona-1" id="tQ_Byxg3EqiRD9VO070x">
    <mxGraphModel dx="1134" dy="714" grid="1" gridSize="10" guides="1" tooltips="1" connect="1" arrows="1" fold="1" page="1" pageScale="1" pageWidth="827" pageHeight="1169" math="0" shadow="0">
      <root>
        <mxCell id="0" />
        <mxCell id="1" parent="0" />
        <mxCell id="PmQrS0kqX57JSI4LbOBk-1" value="&lt;font style=&quot;font-size: 16px;&quot;&gt;Introduction; Terms and definitions;&lt;/font&gt;&lt;br&gt;Scope; Annexes" style="rounded=1;whiteSpace=wrap;html=1;arcSize=50;" vertex="1" parent="1">
          <mxGeometry x="100" y="80" width="640" height="60" as="geometry" />
        </mxCell>
        <mxCell id="PmQrS0kqX57JSI4LbOBk-2" value="Operations&lt;br&gt;(8)" style="rounded=1;whiteSpace=wrap;html=1;" vertex="1" parent="1">
          <mxGeometry x="380" y="160" width="80" height="80" as="geometry" />
        </mxCell>
        <mxCell id="PmQrS0kqX57JSI4LbOBk-3" value="Leadership&lt;br&gt;(5)" style="rounded=1;whiteSpace=wrap;html=1;" vertex="1" parent="1">
          <mxGeometry x="380" y="300" width="80" height="80" as="geometry" />
        </mxCell>
        <mxCell id="PmQrS0kqX57JSI4LbOBk-4" value="Improvement&lt;br&gt;(10)" style="rounded=1;whiteSpace=wrap;html=1;" vertex="1" parent="1">
          <mxGeometry x="380" y="440" width="80" height="80" as="geometry" />
        </mxCell>
        <mxCell id="PmQrS0kqX57JSI4LbOBk-5" value="Performance evaluation&lt;br&gt;(9)" style="rounded=1;whiteSpace=wrap;html=1;" vertex="1" parent="1">
          <mxGeometry x="520" y="300" width="80" height="80" as="geometry" />
        </mxCell>
        <mxCell id="PmQrS0kqX57JSI4LbOBk-7" style="edgeStyle=orthogonalEdgeStyle;rounded=0;orthogonalLoop=1;jettySize=auto;html=1;exitX=1;exitY=0.5;exitDx=0;exitDy=0;entryX=0;entryY=0.5;entryDx=0;entryDy=0;startArrow=classic;startFill=1;shape=flexArrow;startSize=4;endSize=4;fillColor=#bac8d3;strokeColor=none;width=16.571428571428573;" edge="1" parent="1" source="PmQrS0kqX57JSI4LbOBk-6" target="PmQrS0kqX57JSI4LbOBk-3">
          <mxGeometry relative="1" as="geometry" />
        </mxCell>
        <mxCell id="PmQrS0kqX57JSI4LbOBk-6" value="Planning&lt;br&gt;(5)" style="rounded=1;whiteSpace=wrap;html=1;" vertex="1" parent="1">
          <mxGeometry x="240" y="300" width="80" height="80" as="geometry" />
        </mxCell>
        <mxCell id="PmQrS0kqX57JSI4LbOBk-8" style="edgeStyle=orthogonalEdgeStyle;rounded=0;orthogonalLoop=1;jettySize=auto;html=1;exitX=1;exitY=0.5;exitDx=0;exitDy=0;entryX=0;entryY=0.5;entryDx=0;entryDy=0;startArrow=classic;startFill=1;shape=flexArrow;startSize=4;endSize=4;fillColor=#bac8d3;strokeColor=none;width=16.571428571428573;" edge="1" parent="1" source="PmQrS0kqX57JSI4LbOBk-3" target="PmQrS0kqX57JSI4LbOBk-5">
          <mxGeometry relative="1" as="geometry">
            <mxPoint x="460" y="339.71" as="sourcePoint" />
            <mxPoint x="514" y="339.71" as="targetPoint" />
          </mxGeometry>
        </mxCell>
        <mxCell id="PmQrS0kqX57JSI4LbOBk-9" style="edgeStyle=orthogonalEdgeStyle;rounded=0;orthogonalLoop=1;jettySize=auto;html=1;exitX=0.5;exitY=1;exitDx=0;exitDy=0;entryX=0.5;entryY=0;entryDx=0;entryDy=0;startArrow=classic;startFill=1;shape=flexArrow;startSize=4;endSize=4;fillColor=#bac8d3;strokeColor=none;width=16.571428571428573;" edge="1" parent="1" source="PmQrS0kqX57JSI4LbOBk-3" target="PmQrS0kqX57JSI4LbOBk-4">
          <mxGeometry relative="1" as="geometry">
            <mxPoint x="390" y="400" as="sourcePoint" />
            <mxPoint x="450" y="400" as="targetPoint" />
          </mxGeometry>
        </mxCell>
        <mxCell id="PmQrS0kqX57JSI4LbOBk-10" style="edgeStyle=orthogonalEdgeStyle;rounded=0;orthogonalLoop=1;jettySize=auto;html=1;exitX=0.5;exitY=1;exitDx=0;exitDy=0;entryX=0.5;entryY=0;entryDx=0;entryDy=0;startArrow=classic;startFill=1;shape=flexArrow;startSize=4;endSize=4;fillColor=#bac8d3;strokeColor=none;width=16.571428571428573;" edge="1" parent="1" source="PmQrS0kqX57JSI4LbOBk-2" target="PmQrS0kqX57JSI4LbOBk-3">
          <mxGeometry relative="1" as="geometry">
            <mxPoint x="430" y="250" as="sourcePoint" />
            <mxPoint x="430" y="310" as="targetPoint" />
          </mxGeometry>
        </mxCell>
        <mxCell id="PmQrS0kqX57JSI4LbOBk-11" style="rounded=0;orthogonalLoop=1;jettySize=auto;html=1;exitX=1;exitY=0.5;exitDx=0;exitDy=0;entryX=0.5;entryY=0;entryDx=0;entryDy=0;startArrow=none;startFill=0;fillColor=#bac8d3;strokeColor=#BAC8D3;edgeStyle=orthogonalEdgeStyle;curved=1;strokeWidth=12;endArrow=block;endFill=1;" edge="1" parent="1" source="PmQrS0kqX57JSI4LbOBk-2" target="PmQrS0kqX57JSI4LbOBk-5">
          <mxGeometry relative="1" as="geometry">
            <mxPoint x="520" y="200" as="sourcePoint" />
            <mxPoint x="520" y="260" as="targetPoint" />
            <Array as="points">
              <mxPoint x="560" y="200" />
            </Array>
          </mxGeometry>
        </mxCell>
        <mxCell id="PmQrS0kqX57JSI4LbOBk-13" style="rounded=0;orthogonalLoop=1;jettySize=auto;html=1;exitX=0.5;exitY=1;exitDx=0;exitDy=0;entryX=1;entryY=0.5;entryDx=0;entryDy=0;startArrow=none;startFill=0;fillColor=#bac8d3;strokeColor=#BAC8D3;edgeStyle=orthogonalEdgeStyle;curved=1;strokeWidth=12;endArrow=block;endFill=1;" edge="1" parent="1" source="PmQrS0kqX57JSI4LbOBk-5" target="PmQrS0kqX57JSI4LbOBk-4">
          <mxGeometry relative="1" as="geometry">
            <mxPoint x="530" y="480" as="sourcePoint" />
            <mxPoint x="630" y="580" as="targetPoint" />
            <Array as="points">
              <mxPoint x="560" y="480" />
            </Array>
          </mxGeometry>
        </mxCell>
        <mxCell id="PmQrS0kqX57JSI4LbOBk-14" style="rounded=0;orthogonalLoop=1;jettySize=auto;html=1;exitX=0;exitY=0.5;exitDx=0;exitDy=0;entryX=0.5;entryY=1;entryDx=0;entryDy=0;startArrow=none;startFill=0;fillColor=#bac8d3;strokeColor=#BAC8D3;edgeStyle=orthogonalEdgeStyle;curved=1;strokeWidth=12;endArrow=block;endFill=1;" edge="1" parent="1" source="PmQrS0kqX57JSI4LbOBk-4" target="PmQrS0kqX57JSI4LbOBk-6">
          <mxGeometry relative="1" as="geometry">
            <mxPoint x="700" y="470" as="sourcePoint" />
            <mxPoint x="600" y="570" as="targetPoint" />
          </mxGeometry>
        </mxCell>
        <mxCell id="PmQrS0kqX57JSI4LbOBk-15" style="rounded=0;orthogonalLoop=1;jettySize=auto;html=1;exitX=0.5;exitY=0;exitDx=0;exitDy=0;entryX=0;entryY=0.5;entryDx=0;entryDy=0;startArrow=none;startFill=0;fillColor=#bac8d3;strokeColor=#BAC8D3;edgeStyle=orthogonalEdgeStyle;curved=1;strokeWidth=12;endArrow=block;endFill=1;" edge="1" parent="1" source="PmQrS0kqX57JSI4LbOBk-6" target="PmQrS0kqX57JSI4LbOBk-2">
          <mxGeometry relative="1" as="geometry">
            <mxPoint x="390" y="610" as="sourcePoint" />
            <mxPoint x="290" y="510" as="targetPoint" />
          </mxGeometry>
        </mxCell>
        <mxCell id="PmQrS0kqX57JSI4LbOBk-16" value="&lt;b&gt;&lt;font style=&quot;color: rgb(64, 68, 71);&quot;&gt;PLAN&lt;/font&gt;&lt;/b&gt;" style="text;html=1;align=center;verticalAlign=middle;whiteSpace=wrap;rounded=0;" vertex="1" parent="1">
          <mxGeometry x="320" y="250" width="60" height="30" as="geometry" />
        </mxCell>
        <mxCell id="PmQrS0kqX57JSI4LbOBk-17" value="&lt;b&gt;&lt;font style=&quot;color: rgb(64, 68, 71);&quot;&gt;DO&lt;/font&gt;&lt;/b&gt;" style="text;html=1;align=center;verticalAlign=middle;whiteSpace=wrap;rounded=0;" vertex="1" parent="1">
          <mxGeometry x="460" y="250" width="60" height="30" as="geometry" />
        </mxCell>
        <mxCell id="PmQrS0kqX57JSI4LbOBk-18" value="&lt;b&gt;&lt;font style=&quot;color: rgb(64, 68, 71);&quot;&gt;CHECK&lt;/font&gt;&lt;/b&gt;" style="text;html=1;align=center;verticalAlign=middle;whiteSpace=wrap;rounded=0;" vertex="1" parent="1">
          <mxGeometry x="460" y="400" width="60" height="30" as="geometry" />
        </mxCell>
        <mxCell id="PmQrS0kqX57JSI4LbOBk-19" value="&lt;b&gt;&lt;font style=&quot;color: rgb(64, 68, 71);&quot;&gt;ACT&lt;/font&gt;&lt;/b&gt;" style="text;html=1;align=center;verticalAlign=middle;whiteSpace=wrap;rounded=0;" vertex="1" parent="1">
          <mxGeometry x="320" y="400" width="60" height="30" as="geometry" />
        </mxCell>
        <mxCell id="PmQrS0kqX57JSI4LbOBk-20" value="&lt;font&gt;&lt;b&gt;Educational organisation mamagement system and its processes (4.4);&lt;/b&gt;&lt;br&gt;Support (7); Annex&lt;/font&gt;" style="rounded=1;whiteSpace=wrap;html=1;arcSize=50;" vertex="1" parent="1">
          <mxGeometry x="100" y="540" width="640" height="60" as="geometry" />
        </mxCell>
        <mxCell id="PmQrS0kqX57JSI4LbOBk-21" value="&lt;b&gt;EOMS results&lt;/b&gt; -&lt;br&gt;students &lt;br&gt;and other &lt;br&gt;stakeholder satisfaction" style="rounded=1;whiteSpace=wrap;html=1;arcSize=50;" vertex="1" parent="1">
          <mxGeometry x="640" y="200" width="100" height="280" as="geometry" />
        </mxCell>
        <mxCell id="PmQrS0kqX57JSI4LbOBk-22" value="4.1&amp;nbsp;&lt;br&gt;Understanding organisation&lt;br&gt;and its context&lt;div&gt;&lt;br&gt;&lt;div&gt;4.2&lt;br&gt;Understanding&lt;br&gt;needs of&lt;br&gt;stakeholders&lt;/div&gt;&lt;div&gt;&lt;br&gt;&lt;/div&gt;&lt;div&gt;4.3&lt;br&gt;Requirements&lt;br&gt;of students&lt;br&gt;and other&lt;br&gt;stakeholders&lt;/div&gt;&lt;/div&gt;" style="rounded=1;whiteSpace=wrap;html=1;arcSize=50;" vertex="1" parent="1">
          <mxGeometry x="100" y="200" width="100" height="280" as="geometry" />
        </mxCell>
        <mxCell id="PmQrS0kqX57JSI4LbOBk-23" style="edgeStyle=orthogonalEdgeStyle;rounded=0;orthogonalLoop=1;jettySize=auto;html=1;exitX=1;exitY=0.5;exitDx=0;exitDy=0;entryX=0;entryY=0.5;entryDx=0;entryDy=0;startArrow=none;startFill=0;shape=flexArrow;startSize=4;endSize=4;fillColor=#bac8d3;strokeColor=none;width=16.571428571428573;" edge="1" parent="1" source="PmQrS0kqX57JSI4LbOBk-22" target="PmQrS0kqX57JSI4LbOBk-6">
          <mxGeometry relative="1" as="geometry">
            <mxPoint x="150" y="339.71" as="sourcePoint" />
            <mxPoint x="210" y="339.71" as="targetPoint" />
          </mxGeometry>
        </mxCell>
        <mxCell id="PmQrS0kqX57JSI4LbOBk-26" style="edgeStyle=orthogonalEdgeStyle;rounded=0;orthogonalLoop=1;jettySize=auto;html=1;exitX=1;exitY=0.5;exitDx=0;exitDy=0;startArrow=none;startFill=0;shape=flexArrow;startSize=4;endSize=4;fillColor=#bac8d3;strokeColor=none;width=16.571428571428573;entryX=0;entryY=0.5;entryDx=0;entryDy=0;" edge="1" parent="1" source="PmQrS0kqX57JSI4LbOBk-5" target="PmQrS0kqX57JSI4LbOBk-21">
          <mxGeometry relative="1" as="geometry">
            <mxPoint x="700" y="120" as="sourcePoint" />
            <mxPoint x="760" y="160" as="targetPoint" />
          </mxGeometry>
        </mxCell>
      </root>
    </mxGraphModel>
  </diagram>
</mxfile>
